# xmcd CD database file
#
# Track frame offsets:
#	150
#	19962
#	35090
#	57495
#	73110
#
# Disc length: 1198 seconds
#
# Revision: 0
# Processed by: cddbd v1.5.1PL2 Copyright (c) Steve Scherf et al.
# Submitted via: CDex 1.60beta1
#
DISCID=4804ac05
DTITLE=THE　SPACE　COWBOYS - BUG
DYEAR=1997
DGENRE=JPop
TTITLE0=LOST　EXIT
TTITLE1=移り気なロマンティスト
TTITLE2=HELLO！
TTITLE3=PSYCHO　SNAKE
TTITLE4=TEENS−GO−ROUND
EXTD=YEAR: 1997
EXTT0=
EXTT1=
EXTT2=
EXTT3=
EXTT4=
PLAYORDER=
